<?xml version="1.0" encoding="UTF-8"?>
<svg id="Layer_1" data-name="Layer 1" xmlns="http://www.w3.org/2000/svg" viewBox="0 0 1868.24 528.95">
  <defs>
    <style>
      .cls-1 {
        stroke: #9abbfa;
      }

      .cls-1, .cls-2, .cls-3, .cls-4, .cls-5, .cls-6, .cls-7, .cls-8, .cls-9, .cls-10, .cls-11 {
        fill: none;
        stroke-miterlimit: 10;
      }

      .cls-2 {
        stroke: #8798fb;
      }

      .cls-3 {
        stroke: #bffff6;
      }

      .cls-4 {
        stroke: #6b65fe;
      }

      .cls-5 {
        stroke: #a3ccf9;
      }

      .cls-6 {
        stroke: #7e87fc;
      }

      .cls-7 {
        stroke: #6254ff;
      }

      .cls-8 {
        stroke: #b6eef7;
      }

      .cls-9 {
        stroke: #91aafb;
      }

      .cls-10 {
        stroke: #acddf8;
      }

      .cls-11 {
        stroke: #7576fd;
      }
    </style>
  </defs>
  <path class="cls-3" d="m.24,528.51c208.38-111.86,374.68-129.64,485.04-126.63,216.79,5.91,301.96,94.36,439.76,38.37,163.27-66.33,149.47-233.48,289.33-309.29,101.98-55.28,280.31-59.1,615.5,159.63"/>
  <path class="cls-8" d="m9.29,506.1c192.34-96.29,354.43-101.72,471.75-97.37,15.05.56,29.52,1.36,43.47,2.48,173.42,14.19,261.66,81.54,385.47,24.97,77.01-35.18,107.66-93.56,143.02-143.93,41.98-60.19,75.93-108.3,153.86-138.43,19.8-7.66,42.37-14,68.04-19.22,78.46-15.65,171.88-21.57,321.79,22.06,70.92,20.64,151.5,54.86,237,104.93"/>
  <path class="cls-10" d="m18.35,483.69c176.3-80.73,334.18-73.87,458.47-68.11,14.63.68,28.78,1.46,42.49,2.52,162.09,13.02,255.87,74.69,375.64,14.01,79.69-40.38,103.51-105.75,141.97-152.75,45.66-55.8,83.04-83.62,162.46-102.69,20.56-4.94,43.83-9.17,70.17-13.91,82.45-14.83,167.38-36.42,320.91-13.39,75.95,11.39,161.44,38.79,247.08,83.2"/>
  <path class="cls-5" d="m27.4,461.28c160.26-65.16,313.93-46.1,445.18-38.84,14.22.79,28.04,1.56,41.5,2.57,150.76,11.85,249.96,67.45,365.81,3.05,82.32-45.76,99.26-118,140.92-161.58,49.21-51.49,90.36-58.75,171.06-66.95,21.37-2.17,45.29-4.28,72.31-8.6,86.47-13.83,163.78-38.59,320.04-48.84,81.13-5.32,171.39,22.71,257.16,61.48"/>
  <path class="cls-1" d="m36.46,438.87c144.22-49.59,293.68-18.41,431.9-9.58,13.8.88,27.3,1.63,40.52,2.61,139.46,10.35,243.9,59.89,355.98-7.91,84.88-51.35,94.99-130.26,139.86-170.4,52.74-47.18,97.78-33.63,179.66-31.21,22.2.66,46.76.62,74.44-3.29,90.5-12.79,159.78-68.97,319.16-84.29,86.73-8.34,181.33,6.64,267.24,39.76"/>
  <path class="cls-9" d="m45.52,416.46c128.18-34.03,273.44,9.2,418.61,19.68,13.39.97,26.56,1.72,39.53,2.65,128.13,9.16,237.69,52.06,346.15-18.87,87.34-57.12,90.7-142.53,138.81-179.22,56.24-42.9,105.2-8.26,188.26,4.53,23.04,3.55,48.24,5.54,76.57,2.02,94.53-11.72,156-86.51,318.28-119.75,92.13-18.87,191.28-9.43,277.32,18.04"/>
  <path class="cls-2" d="m54.57,394.05c112.14-18.46,253.2,36.71,405.33,48.94,12.97,1.04,25.82,1.82,38.55,2.69,116.8,8,231.34,44.01,336.32-29.83,89.66-63.07,86.4-154.83,137.75-188.04,59.73-38.63,112.56,17.31,196.86,40.28,23.85,6.5,49.71,10.46,78.7,7.33,98.57-10.62,151.92-104.62,317.4-155.2,97.35-29.76,201.22-25.51,287.39-3.68"/>
  <path class="cls-6" d="m63.63,371.64c96.1-2.9,232.97,64.11,392.04,78.2,12.56,1.11,25.08,1.92,37.56,2.73,105.46,6.87,224.83,35.8,326.49-40.79,91.84-69.2,82.08-167.15,136.7-196.87,63.21-34.4,119.79,43.01,205.46,76.02,24.64,9.49,51.18,15.39,80.84,12.64,102.61-9.49,147.49-123.1,316.53-190.65,102.37-40.91,211.17-41.58,297.47-25.4"/>
  <path class="cls-11" d="m72.68,349.23c80.06,12.67,212.76,91.4,378.76,107.47,12.14,1.18,24.34,2.02,36.58,2.77,94.13,5.77,218.18,27.46,316.67-51.75,93.85-75.49,77.76-179.49,135.65-205.69,66.68-30.19,126.9,68.8,214.06,111.76,25.38,12.51,52.65,20.32,82.97,17.95,106.64-8.34,142.7-141.78,315.65-226.1,107.16-52.24,221.11-57.65,307.55-47.12"/>
  <path class="cls-4" d="m81.74,326.82c64.02,28.24,192.56,118.56,365.47,136.73,11.73,1.23,23.6,2.15,35.6,2.81,82.78,4.84,211.38,19.02,306.84-62.72,95.69-81.94,73.41-191.93,134.59-214.51,70.12-26.1,133.89,94.61,222.66,147.5,26.1,15.55,54.13,25.3,85.1,23.26,110.69-7.02,137.56-160.56,314.77-261.56,111.74-63.68,231.06-73.73,317.63-68.84"/>
  <path class="cls-7" d="m90.8,304.41c51,46.56,188.36,158.63,386.8,168.84,71.45,3.68,204.45,10.52,297.01-73.68,97.33-88.54,69.13-204.23,133.54-223.33,95.43-28.3,179.93,219,318.5,211.82,114.72-5.95,132.13-179.36,313.89-297.01C1656.66,15.89,1781.54,1.26,1868.24.5"/>
</svg>