<svg
                  version="1.1"
                  id="Layer_1"
                  xmlns="http://www.w3.org/2000/svg"
                  xmlns:xlink="http://www.w3.org/1999/xlink"
                  x="0px"
                  y="0px"
                  width="100%"
                  viewBox="0 0 909 210"
                  enable-background="new 0 0 909 210"
                  xml:space="preserve"
               >
                  <path
                     fill="transparent"
                     opacity="1.000000"
                     stroke="none"
                     d="
M910.000000,147.000000 
	C910.000000,168.324677 910.000000,189.649353 910.000000,210.947540 
	C607.000000,210.947540 304.000000,210.947540 1.000000,210.947540 
	C1.000000,181.906738 1.000000,152.918381 1.336532,123.705078 
	C2.425898,128.333069 3.178731,133.186005 3.960388,138.456482 
	C5.507493,150.643723 10.022561,161.334900 15.994488,171.438080 
	C21.339298,180.480301 28.274881,188.137573 37.038826,194.365540 
	C37.318241,194.856415 37.577209,195.026428 38.091274,195.386749 
	C53.829651,205.294495 70.392349,211.277222 89.488113,209.893600 
	C95.517677,209.639709 101.157188,209.767609 106.641304,208.906235 
	C119.039986,206.958817 130.414139,202.398392 140.407318,194.046753 
	C153.074982,184.219803 162.008530,171.963501 166.970810,157.040146 
	C169.049332,150.789276 170.229218,144.239624 171.580841,137.499420 
	C158.920898,137.115555 146.497406,137.095703 134.075043,136.966385 
	C131.804626,136.942780 130.513077,137.414062 131.009201,140.324799 
	C127.692276,150.162323 123.443756,159.010513 115.619667,166.045959 
	C114.227127,167.058243 113.122520,167.940765 111.703133,168.901855 
	C110.907257,169.314117 110.426163,169.647797 109.973137,169.989380 
	C110.001198,169.997314 109.982544,169.942047 109.602463,169.976105 
	C101.541077,171.655121 93.843178,174.638077 86.183456,174.543121 
	C79.439667,174.459473 72.738556,170.934494 66.010475,168.962662 
	C66.002357,168.996094 66.070854,168.989532 65.985374,168.724258 
	C65.571045,168.363632 65.242203,168.268280 64.645813,168.036224 
	C63.632896,167.261475 62.887527,166.623444 61.996841,165.676056 
	C53.277130,158.146301 48.845627,148.495850 45.885338,137.715027 
	C45.663250,136.914993 45.369553,136.424408 45.044212,135.507812 
	C44.341858,129.749130 43.162827,124.422745 43.096680,119.082581 
	C42.905754,103.669502 42.057697,88.183113 46.001858,72.656342 
	C49.090118,62.379856 53.941196,53.540413 61.324333,45.980141 
	C61.539074,45.943874 61.953793,45.810738 62.226501,45.844341 
	C62.714104,45.592632 62.928993,45.307316 63.396141,44.917587 
	C64.102112,44.258026 64.555824,43.702877 65.322960,43.081604 
	C66.110527,42.683399 66.584671,42.351315 67.029358,42.011517 
	C66.999901,42.003799 67.017883,42.061974 67.391891,42.027122 
	C74.822701,38.200783 82.408264,36.008911 90.326630,37.143974 
	C97.303436,38.144073 104.103241,40.378994 110.989075,42.036316 
	C110.996941,42.004013 110.930473,42.006100 111.007370,42.268036 
	C111.387634,42.709946 111.691002,42.889915 111.996124,43.036221 
	C111.997879,43.002556 111.930931,43.010487 112.013184,43.273205 
	C112.418007,43.633427 112.740578,43.730930 113.333160,43.961025 
	C114.365143,44.730846 115.127106,45.368080 116.037704,46.324326 
	C124.289452,53.264370 128.233047,62.344788 131.150635,72.437576 
	C131.896774,73.240906 132.677490,73.944908 133.459106,73.945923 
	C146.018967,73.962234 158.578964,73.888977 171.468719,73.645081 
	C171.529053,71.209267 171.508881,68.900421 170.951233,66.729637 
	C165.872894,46.961075 156.857666,29.618237 139.712555,17.014072 
	C131.697021,10.293929 122.649574,6.447856 112.958923,4.036812 
	C108.026115,2.809522 102.989624,1.998946 98.000000,1.000000 
	C368.543182,1.000000 639.086365,1.000000 910.000000,1.000000 
	C910.000000,44.355957 910.000000,87.712967 909.708374,131.275757 
	C908.583557,127.440987 907.972290,123.339226 906.877808,119.370728 
	C902.588379,103.817543 894.621826,90.949646 879.019531,84.639099 
	C867.951233,80.162392 856.419006,79.178009 844.401306,80.857361 
	C822.984802,83.850090 807.828674,94.612854 800.967224,115.208961 
	C794.254272,135.359314 795.160156,155.844666 802.526245,175.674820 
	C807.567261,189.245697 817.296021,198.719360 831.487854,202.986115 
	C842.354553,206.253189 853.271057,207.541260 864.753540,206.176315 
	C882.057007,204.119370 895.001038,196.039032 903.853516,181.218155 
	C906.456299,176.860748 904.391846,173.240921 899.210754,173.046188 
	C894.220032,172.858627 889.202332,172.786270 884.227112,173.120178 
	C882.509399,173.235474 880.186157,174.285751 879.325317,175.654648 
	C871.564026,187.995865 852.482910,189.917252 841.736389,184.259842 
	C831.369263,178.802246 825.466370,169.926697 823.977722,158.225357 
	C822.807983,149.030670 822.833557,149.000275 831.962524,149.000122 
	C855.118713,148.999756 878.275391,149.069046 901.430481,148.911682 
	C904.291199,148.892242 907.143677,147.666687 910.000000,147.000000 
M362.946686,182.108292 
	C364.824707,176.725525 364.002350,173.020325 360.492737,173.266281 
	C351.839081,173.872772 341.419891,168.720978 335.523651,179.901352 
	C335.312775,180.301193 334.764801,180.532288 334.357086,180.817993 
	C324.011597,188.068085 313.015869,189.560867 301.448425,184.163223 
	C289.103210,178.402664 284.598419,167.559158 282.987274,154.929230 
	C282.401978,150.340652 284.225189,148.867508 288.875763,148.906845 
	C312.691498,149.108307 336.509857,149.002136 360.327301,148.994934 
	C361.824463,148.994476 363.353790,149.103271 364.812347,148.845413 
	C368.245056,148.238525 370.668091,146.762421 370.027832,142.565170 
	C368.908264,135.226074 368.629486,127.690712 366.811066,120.539497 
	C362.117432,102.081017 352.171478,87.795784 332.745178,82.477173 
	C323.101227,79.836815 313.290100,79.341019 303.237305,80.889236 
	C282.811340,84.034988 268.073059,94.298470 260.978271,113.964584 
	C254.650848,131.503632 255.507660,149.613953 259.465729,167.440430 
	C261.898560,178.397491 267.081573,188.113129 276.444397,195.368073 
	C287.420166,203.872910 300.211395,206.440430 313.301941,206.803131 
	C333.589600,207.365219 351.240082,201.221115 362.946686,182.108292 
M539.268372,182.560867 
	C529.899658,177.190094 527.335876,168.112259 527.113281,158.402252 
	C526.712524,140.923126 527.133179,123.426537 526.909668,105.941086 
	C526.851257,101.371887 528.201355,99.844040 532.867798,99.905403 
	C550.686157,100.139709 568.509399,100.002953 586.330811,99.998627 
	C593.931152,99.996780 596.982849,97.709518 596.999512,92.027863 
	C597.018188,85.652725 594.920898,84.001335 586.787720,84.000542 
	C568.799744,83.998795 550.809937,83.856644 532.825134,84.096840 
	C528.101807,84.159920 526.616821,82.540527 526.929077,78.012466 
	C527.249146,73.370987 527.000000,68.690262 527.000000,64.026711 
	C527.000000,49.695782 526.189941,48.898724 511.728760,49.000027 
	C504.084137,49.053581 501.015594,52.185841 501.004456,60.020687 
	C500.987427,72.012642 500.894073,84.005768 501.022247,95.996384 
	C501.281799,120.269516 500.830536,144.591827 502.290405,168.796265 
	C503.299622,185.528809 512.803955,199.324005 531.554443,204.281769 
	C540.229492,206.575546 548.909668,207.140717 558.027649,206.220367 
	C576.312988,204.374664 591.773010,193.136932 594.769043,175.199951 
	C597.071594,161.414749 596.643799,147.125137 596.651917,133.059387 
	C596.653076,131.046600 592.504333,128.574692 589.825500,127.182091 
	C588.118652,126.294800 585.580933,126.997665 583.415771,127.001457 
	C575.673767,127.015007 573.042969,129.663666 573.007446,137.582489 
	C572.973145,145.243881 573.187195,152.911575 572.941040,160.565201 
	C572.740967,166.785706 571.356445,172.825745 566.909180,177.535172 
	C559.252808,185.642838 550.028870,186.516174 539.268372,182.560867 
M645.791931,182.900223 
	C639.033997,178.054657 637.119873,170.900223 637.061584,163.230728 
	C636.889282,140.575607 637.019165,117.918327 636.987732,95.261940 
	C636.978821,88.805779 634.158752,84.994133 627.910767,84.275154 
	C624.057373,83.831734 619.957336,84.361603 616.128174,85.192459 
	C611.905151,86.108765 609.966797,89.250778 609.975464,93.695671 
	C610.026428,119.850418 609.614807,146.013443 610.164917,172.156723 
	C610.436218,185.051529 616.340698,195.529419 628.591370,201.224396 
	C642.180847,207.541687 656.338379,207.266769 670.255066,202.885162 
	C677.995361,200.448166 685.212646,196.350006 692.579407,193.039276 
	C694.661133,203.215057 695.638184,204.003738 706.640564,203.999893 
	C707.806702,203.999481 708.976440,204.056244 710.138367,203.985718 
	C714.918640,203.695618 717.947937,200.864944 717.958252,196.050552 
	C718.031921,161.732895 718.110046,127.413925 717.780090,93.099274 
	C717.754395,90.426933 715.156128,86.270042 712.831604,85.464935 
	C708.839417,84.082237 704.031921,84.179382 699.726807,84.787872 
	C693.912048,85.609741 692.023926,88.485344 692.009155,94.387207 
	C691.978760,106.548302 692.129456,118.711319 691.961304,130.870163 
	C691.812073,141.656006 691.803406,152.479843 690.834106,163.205704 
	C690.180969,170.432800 686.889038,177.084946 680.495239,181.168610 
	C669.648865,188.096268 658.179749,188.543396 645.791931,182.900223 
M414.398010,90.830536 
	C411.850494,92.498871 409.303009,94.167206 406.574829,95.953865 
	C404.713623,84.587845 403.996338,83.999863 392.595825,84.000000 
	C391.595886,84.000015 390.595917,83.992653 389.596039,84.001259 
	C384.238708,84.047363 381.051849,86.812912 381.040436,92.057579 
	C380.965790,126.388329 380.968140,160.719391 381.041779,195.050140 
	C381.052094,199.866379 384.079651,202.761993 388.866638,202.968628 
	C392.193573,203.112213 395.532043,203.032562 398.864655,202.992157 
	C404.243347,202.926926 406.981293,200.146286 406.990204,194.641632 
	C407.017212,177.976181 406.919891,161.310074 407.044647,144.645508 
	C407.086731,139.021713 407.445984,133.381378 408.010742,127.783966 
	C409.638977,111.647095 417.707458,102.574997 433.711639,101.273277 
	C447.657104,100.139023 457.984467,103.021202 461.483612,118.259819 
	C462.620605,123.211250 462.896118,128.441879 462.935486,133.549652 
	C463.092163,153.880341 462.985992,174.212967 463.008942,194.544846 
	C463.015472,200.324844 465.707947,202.949341 471.538452,202.996582 
	C474.038116,203.016830 476.538116,203.008850 479.037903,202.998322 
	C486.362610,202.967499 488.990173,200.397430 488.994263,193.147171 
	C489.008942,167.149002 489.016296,141.150818 488.993042,115.152672 
	C488.981567,102.330902 479.688568,89.040741 467.446747,85.041748 
	C449.247650,79.096718 431.803833,81.805511 414.398010,90.830536 
M208.000000,80.500000 
	C208.000000,71.009995 207.709900,61.508907 208.071716,52.032715 
	C208.549240,39.526024 205.597504,36.392406 192.793472,36.933308 
	C184.262924,37.293671 182.001129,39.296398 182.000809,48.000347 
	C181.999100,94.618065 182.147369,141.236526 181.911285,187.853058 
	C181.839325,202.058212 182.999619,203.516556 197.320770,203.047577 
	C205.638947,202.775208 207.997482,200.661331 207.998337,192.383575 
	C208.002167,155.422379 208.000000,118.461189 208.000000,80.500000 
M757.000000,163.500000 
	C757.000000,155.999924 756.973877,148.499741 757.005188,140.999786 
	C757.080078,123.077408 772.155762,107.142731 789.972961,105.921394 
	C791.821838,105.794662 794.247620,105.128342 795.289795,103.822075 
	C798.798157,99.424820 801.976990,94.733391 804.941162,89.943649 
	C807.104553,86.447777 805.232422,83.162109 801.141968,83.037819 
	C789.593750,82.686905 778.579651,84.930519 768.982056,91.567101 
	C764.123352,94.926834 759.977417,99.317291 754.998901,103.689911 
	C754.998901,100.340431 755.073914,97.391487 754.984070,94.447578 
	C754.761230,87.143288 750.029663,82.909698 742.290039,83.000107 
	C735.234741,83.082527 731.029663,87.413086 731.006042,94.691040 
	C730.979553,102.857613 731.000000,111.024338 731.000000,119.191002 
	C731.000000,143.690994 730.982239,168.190994 731.011841,192.690948 
	C731.019836,199.348709 733.729919,201.984665 740.345520,201.999100 
	C742.845520,202.004562 745.345459,202.006241 747.845459,201.998764 
	C754.118835,201.980011 756.945190,199.264603 756.984375,192.999893 
	C757.043823,183.500259 757.000000,174.000000 757.000000,163.500000 
M238.119598,84.000214 
	C235.787827,84.000145 233.456070,83.999023 231.124298,84.000175 
	C222.361099,84.004501 220.012161,86.396240 220.002563,95.372925 
	C219.991531,105.699280 220.000000,116.025650 220.000000,126.352013 
	C220.000000,147.837509 219.989349,169.323013 220.004745,190.808502 
	C220.011856,200.723938 222.250244,202.998978 231.871506,202.999969 
	C233.370499,203.000122 234.884720,202.860886 236.365921,203.023224 
	C244.290787,203.891800 246.906113,198.617599 246.929581,192.943695 
	C247.067383,159.633408 247.039291,126.322166 246.955902,93.011528 
	C246.942322,87.587265 244.373230,84.979218 238.119598,84.000214 
M245.982010,67.987534 
	C247.451355,59.526157 241.642426,52.934624 231.571960,53.893288 
	C226.812576,54.346363 223.625717,56.642544 221.900146,60.553776 
	C220.114365,64.601425 220.088455,68.969055 223.244232,72.717682 
	C229.916824,80.643806 241.324829,78.671356 245.982010,67.987534 
z"
                  />
                  <path
                     fill="#CFFFF8"
                     opacity="1.000000"
                     stroke="none"
                     d="
M910.000000,146.533890 
	C907.143677,147.666687 904.291199,148.892242 901.430481,148.911682 
	C878.275391,149.069046 855.118713,148.999756 831.962524,149.000122 
	C822.833557,149.000275 822.807983,149.030670 823.977722,158.225357 
	C825.466370,169.926697 831.369263,178.802246 841.736389,184.259842 
	C852.482910,189.917252 871.564026,187.995865 879.325317,175.654648 
	C880.186157,174.285751 882.509399,173.235474 884.227112,173.120178 
	C889.202332,172.786270 894.220032,172.858627 899.210754,173.046188 
	C904.391846,173.240921 906.456299,176.860748 903.853516,181.218155 
	C895.001038,196.039032 882.057007,204.119370 864.753540,206.176315 
	C853.271057,207.541260 842.354553,206.253189 831.487854,202.986115 
	C817.296021,198.719360 807.567261,189.245697 802.526245,175.674820 
	C795.160156,155.844666 794.254272,135.359314 800.967224,115.208961 
	C807.828674,94.612854 822.984802,83.850090 844.401306,80.857361 
	C856.419006,79.178009 867.951233,80.162392 879.019531,84.639099 
	C894.621826,90.949646 902.588379,103.817543 906.877808,119.370728 
	C907.972290,123.339226 908.583557,127.440987 909.708374,131.740768 
	C910.000000,136.689255 910.000000,141.378510 910.000000,146.533890 
M879.194702,114.450066 
	C871.344116,98.994102 850.138489,94.712166 836.480164,105.300720 
	C829.219849,110.929283 826.105164,118.794662 824.615906,127.580345 
	C823.753967,132.665131 825.157959,134.936325 830.230896,134.965103 
	C846.053467,135.054932 861.876892,134.973389 877.699829,135.015579 
	C881.527527,135.025772 883.521240,133.117859 882.914978,129.478531 
	C882.108521,124.637268 880.706055,119.895287 879.194702,114.450066 
z"
                  />
                  <path
                     fill="transparent"
                     opacity="1.000000"
                     stroke="none"
                     d="
M1.000000,89.000000 
	C1.000000,59.743248 1.000000,30.486494 1.000000,1.000000 
	C27.353783,1.000000 53.708233,1.000000 80.320770,1.358599 
	C76.831230,2.146902 73.017944,2.272022 69.348152,3.062914 
	C57.932083,5.523236 47.049332,9.313340 37.683247,17.005640 
	C37.456070,17.035381 37.015854,17.163012 36.689262,17.220856 
	C26.760468,24.999414 18.737514,34.016136 13.275545,45.174828 
	C8.948154,54.015598 5.017654,62.973087 4.089674,73.183472 
	C4.026585,73.421921 3.947666,73.908867 3.637409,74.169754 
	C2.551435,79.287102 1.775717,84.143547 1.000000,89.000000 
z"
                  />
                  <path
                     fill="#70FFEC"
                     opacity="1.000000"
                     stroke="none"
                     d="
M1.000000,89.468658 
	C1.775717,84.143547 2.551435,79.287102 3.780608,74.493332 
	C8.936259,82.936417 13.603043,91.337227 18.404217,99.660530 
	C18.812355,100.368088 20.117224,100.558372 21.256374,101.153000 
	C21.697803,101.881844 21.888365,102.446640 22.010761,103.435394 
	C21.990921,105.569351 22.039246,107.279358 21.953949,109.203949 
	C21.552446,109.614052 21.284561,109.809578 20.669477,110.053116 
	C15.212392,119.404434 10.102507,128.707733 4.727274,138.014816 
	C4.285138,138.025375 4.108351,138.032150 3.931563,138.038940 
	C3.178731,133.186005 2.425898,128.333069 1.336532,123.240067 
	C1.000000,111.979103 1.000000,100.958214 1.000000,89.468658 
z"
                  />
                  <path
                     fill="#41D69C"
                     opacity="1.000000"
                     stroke="none"
                     d="
M97.550018,1.000000 
	C102.989624,1.998946 108.026115,2.809522 112.958923,4.036812 
	C122.649574,6.447856 131.697021,10.293929 139.704163,17.220276 
	C140.009430,17.582279 139.995239,17.994818 139.527115,17.996309 
	C128.824692,17.999985 118.587532,17.872484 108.358154,18.097954 
	C105.882942,18.152510 103.433418,19.372557 100.527695,20.016508 
	C97.412697,19.956898 94.742081,19.937439 91.876038,19.637779 
	C90.793877,19.172220 89.907150,18.986858 89.016602,18.346022 
	C89.008514,12.260365 89.004257,6.630182 89.000000,1.000000 
	C91.700012,1.000000 94.400032,1.000000 97.550018,1.000000 
z"
                  />
                  <path
                     fill="#41E2B8"
                     opacity="1.000000"
                     stroke="none"
                     d="
M88.555832,1.000000 
	C89.004257,6.630182 89.008514,12.260365 88.580978,18.420502 
	C85.809616,18.986767 83.470047,19.023079 80.696732,19.025272 
	C78.489937,18.668049 76.724533,18.118576 74.942581,18.058262 
	C62.600460,17.640505 50.254887,17.324543 37.910423,16.975899 
	C47.049332,9.313340 57.932083,5.523236 69.348152,3.062914 
	C73.017944,2.272022 76.831230,2.146902 80.789429,1.358599 
	C83.370560,1.000000 85.741112,1.000000 88.555832,1.000000 
z"
                  />
                  <path
                     fill="#CFFFF8"
                     opacity="1.000000"
                     stroke="none"
                     d="
M362.755402,182.442444 
	C351.240082,201.221115 333.589600,207.365219 313.301941,206.803131 
	C300.211395,206.440430 287.420166,203.872910 276.444397,195.368073 
	C267.081573,188.113129 261.898560,178.397491 259.465729,167.440430 
	C255.507660,149.613953 254.650848,131.503632 260.978271,113.964584 
	C268.073059,94.298470 282.811340,84.034988 303.237305,80.889236 
	C313.290100,79.341019 323.101227,79.836815 332.745178,82.477173 
	C352.171478,87.795784 362.117432,102.081017 366.811066,120.539497 
	C368.629486,127.690712 368.908264,135.226074 370.027832,142.565170 
	C370.668091,146.762421 368.245056,148.238525 364.812347,148.845413 
	C363.353790,149.103271 361.824463,148.994476 360.327301,148.994934 
	C336.509857,149.002136 312.691498,149.108307 288.875763,148.906845 
	C284.225189,148.867508 282.401978,150.340652 282.987274,154.929230 
	C284.598419,167.559158 289.103210,178.402664 301.448425,184.163223 
	C313.015869,189.560867 324.011597,188.068085 334.357086,180.817993 
	C334.764801,180.532288 335.312775,180.301193 335.523651,179.901352 
	C341.419891,168.720978 351.839081,173.872772 360.492737,173.266281 
	C364.002350,173.020325 364.824707,176.725525 362.755402,182.442444 
M286.456940,119.098091 
	C285.929443,121.012428 285.354279,122.915108 284.882660,124.843117 
	C282.794495,133.379623 284.042572,134.994202 292.703979,134.998444 
	C305.186371,135.004547 317.668732,135.000000 330.151123,135.000000 
	C344.194183,135.000000 345.762146,132.697861 340.928162,119.176872 
	C336.722565,107.413559 324.701813,98.804283 312.849335,99.066788 
	C301.956818,99.308029 290.375153,107.887314 286.456940,119.098091 
z"
                  />
                  <path
                     fill="#CFFFF8"
                     opacity="1.000000"
                     stroke="none"
                     d="
M539.621460,182.720032 
	C550.028870,186.516174 559.252808,185.642838 566.909180,177.535172 
	C571.356445,172.825745 572.740967,166.785706 572.941040,160.565201 
	C573.187195,152.911575 572.973145,145.243881 573.007446,137.582489 
	C573.042969,129.663666 575.673767,127.015007 583.415771,127.001457 
	C585.580933,126.997665 588.118652,126.294800 589.825500,127.182091 
	C592.504333,128.574692 596.653076,131.046600 596.651917,133.059387 
	C596.643799,147.125137 597.071594,161.414749 594.769043,175.199951 
	C591.773010,193.136932 576.312988,204.374664 558.027649,206.220367 
	C548.909668,207.140717 540.229492,206.575546 531.554443,204.281769 
	C512.803955,199.324005 503.299622,185.528809 502.290405,168.796265 
	C500.830536,144.591827 501.281799,120.269516 501.022247,95.996384 
	C500.894073,84.005768 500.987427,72.012642 501.004456,60.020687 
	C501.015594,52.185841 504.084137,49.053581 511.728760,49.000027 
	C526.189941,48.898724 527.000000,49.695782 527.000000,64.026711 
	C527.000000,68.690262 527.249146,73.370987 526.929077,78.012466 
	C526.616821,82.540527 528.101807,84.159920 532.825134,84.096840 
	C550.809937,83.856644 568.799744,83.998795 586.787720,84.000542 
	C594.920898,84.001335 597.018188,85.652725 596.999512,92.027863 
	C596.982849,97.709518 593.931152,99.996780 586.330811,99.998627 
	C568.509399,100.002953 550.686157,100.139709 532.867798,99.905403 
	C528.201355,99.844040 526.851257,101.371887 526.909668,105.941086 
	C527.133179,123.426537 526.712524,140.923126 527.113281,158.402252 
	C527.335876,168.112259 529.899658,177.190094 539.621460,182.720032 
z"
                  />
                  <path
                     fill="#CFFFF8"
                     opacity="1.000000"
                     stroke="none"
                     d="
M646.135864,183.054413 
	C658.179749,188.543396 669.648865,188.096268 680.495239,181.168610 
	C686.889038,177.084946 690.180969,170.432800 690.834106,163.205704 
	C691.803406,152.479843 691.812073,141.656006 691.961304,130.870163 
	C692.129456,118.711319 691.978760,106.548302 692.009155,94.387207 
	C692.023926,88.485344 693.912048,85.609741 699.726807,84.787872 
	C704.031921,84.179382 708.839417,84.082237 712.831604,85.464935 
	C715.156128,86.270042 717.754395,90.426933 717.780090,93.099274 
	C718.110046,127.413925 718.031921,161.732895 717.958252,196.050552 
	C717.947937,200.864944 714.918640,203.695618 710.138367,203.985718 
	C708.976440,204.056244 707.806702,203.999481 706.640564,203.999893 
	C695.638184,204.003738 694.661133,203.215057 692.579407,193.039276 
	C685.212646,196.350006 677.995361,200.448166 670.255066,202.885162 
	C656.338379,207.266769 642.180847,207.541687 628.591370,201.224396 
	C616.340698,195.529419 610.436218,185.051529 610.164917,172.156723 
	C609.614807,146.013443 610.026428,119.850418 609.975464,93.695671 
	C609.966797,89.250778 611.905151,86.108765 616.128174,85.192459 
	C619.957336,84.361603 624.057373,83.831734 627.910767,84.275154 
	C634.158752,84.994133 636.978821,88.805779 636.987732,95.261940 
	C637.019165,117.918327 636.889282,140.575607 637.061584,163.230728 
	C637.119873,170.900223 639.033997,178.054657 646.135864,183.054413 
z"
                  />
                  <path
                     fill="#CFFFF8"
                     opacity="1.000000"
                     stroke="none"
                     d="
M414.722778,90.652519 
	C431.803833,81.805511 449.247650,79.096718 467.446747,85.041748 
	C479.688568,89.040741 488.981567,102.330902 488.993042,115.152672 
	C489.016296,141.150818 489.008942,167.149002 488.994263,193.147171 
	C488.990173,200.397430 486.362610,202.967499 479.037903,202.998322 
	C476.538116,203.008850 474.038116,203.016830 471.538452,202.996582 
	C465.707947,202.949341 463.015472,200.324844 463.008942,194.544846 
	C462.985992,174.212967 463.092163,153.880341 462.935486,133.549652 
	C462.896118,128.441879 462.620605,123.211250 461.483612,118.259819 
	C457.984467,103.021202 447.657104,100.139023 433.711639,101.273277 
	C417.707458,102.574997 409.638977,111.647095 408.010742,127.783966 
	C407.445984,133.381378 407.086731,139.021713 407.044647,144.645508 
	C406.919891,161.310074 407.017212,177.976181 406.990204,194.641632 
	C406.981293,200.146286 404.243347,202.926926 398.864655,202.992157 
	C395.532043,203.032562 392.193573,203.112213 388.866638,202.968628 
	C384.079651,202.761993 381.052094,199.866379 381.041779,195.050140 
	C380.968140,160.719391 380.965790,126.388329 381.040436,92.057579 
	C381.051849,86.812912 384.238708,84.047363 389.596039,84.001259 
	C390.595917,83.992653 391.595886,84.000015 392.595825,84.000000 
	C403.996338,83.999863 404.713623,84.587845 406.574829,95.953865 
	C409.303009,94.167206 411.850494,92.498871 414.722778,90.652519 
z"
                  />
                  <path
                     fill="#CFFFF8"
                     opacity="1.000000"
                     stroke="none"
                     d="
M208.000000,81.000000 
	C208.000000,118.461189 208.002167,155.422379 207.998337,192.383575 
	C207.997482,200.661331 205.638947,202.775208 197.320770,203.047577 
	C182.999619,203.516556 181.839325,202.058212 181.911285,187.853058 
	C182.147369,141.236526 181.999100,94.618065 182.000809,48.000347 
	C182.001129,39.296398 184.262924,37.293671 192.793472,36.933308 
	C205.597504,36.392406 208.549240,39.526024 208.071716,52.032715 
	C207.709900,61.508907 208.000000,71.009995 208.000000,81.000000 
z"
                  />
                  <path
                     fill="#CFFFF8"
                     opacity="1.000000"
                     stroke="none"
                     d="
M757.000000,164.000000 
	C757.000000,174.000000 757.043823,183.500259 756.984375,192.999893 
	C756.945190,199.264603 754.118835,201.980011 747.845459,201.998764 
	C745.345459,202.006241 742.845520,202.004562 740.345520,201.999100 
	C733.729919,201.984665 731.019836,199.348709 731.011841,192.690948 
	C730.982239,168.190994 731.000000,143.690994 731.000000,119.191002 
	C731.000000,111.024338 730.979553,102.857613 731.006042,94.691040 
	C731.029663,87.413086 735.234741,83.082527 742.290039,83.000107 
	C750.029663,82.909698 754.761230,87.143288 754.984070,94.447578 
	C755.073914,97.391487 754.998901,100.340431 754.998901,103.689911 
	C759.977417,99.317291 764.123352,94.926834 768.982056,91.567101 
	C778.579651,84.930519 789.593750,82.686905 801.141968,83.037819 
	C805.232422,83.162109 807.104553,86.447777 804.941162,89.943649 
	C801.976990,94.733391 798.798157,99.424820 795.289795,103.822075 
	C794.247620,105.128342 791.821838,105.794662 789.972961,105.921394 
	C772.155762,107.142731 757.080078,123.077408 757.005188,140.999786 
	C756.973877,148.499741 757.000000,155.999924 757.000000,164.000000 
z"
                  />
                  <path
                     fill="#CFFFF8"
                     opacity="1.000000"
                     stroke="none"
                     d="
M238.564743,84.001160 
	C244.373230,84.979218 246.942322,87.587265 246.955902,93.011528 
	C247.039291,126.322166 247.067383,159.633408 246.929581,192.943695 
	C246.906113,198.617599 244.290787,203.891800 236.365921,203.023224 
	C234.884720,202.860886 233.370499,203.000122 231.871506,202.999969 
	C222.250244,202.998978 220.011856,200.723938 220.004745,190.808502 
	C219.989349,169.323013 220.000000,147.837509 220.000000,126.352013 
	C220.000000,116.025650 219.991531,105.699280 220.002563,95.372925 
	C220.012161,86.396240 222.361099,84.004501 231.124298,84.000175 
	C233.456070,83.999023 235.787827,84.000145 238.564743,84.001160 
z"
                  />
                  <path
                     fill="#68E2CE"
                     opacity="1.000000"
                     stroke="none"
                     d="
M3.960388,138.456482 
	C4.108351,138.032150 4.285138,138.025375 4.875315,138.316315 
	C11.918442,144.106506 18.471214,149.696350 25.223787,155.033417 
	C27.309013,156.681534 29.938566,157.640930 32.497395,159.033875 
	C32.869408,159.376740 32.977291,159.636887 33.016975,160.246872 
	C33.391697,161.029480 33.748985,161.497742 34.304405,161.988754 
	C34.502533,162.011490 34.898201,162.061859 34.916779,162.077637 
	C34.935352,162.093399 34.983784,162.099365 34.977489,162.405548 
	C35.034203,163.114899 35.097214,163.518036 34.868492,164.154877 
	C35.368511,174.307617 36.160259,184.226685 36.952007,194.145737 
	C28.274881,188.137573 21.339298,180.480301 15.994488,171.438080 
	C10.022561,161.334900 5.507493,150.643723 3.960388,138.456482 
z"
                  />
                  <path
                     fill="#41B096"
                     opacity="1.000000"
                     stroke="none"
                     d="
M139.995239,17.994818 
	C139.995239,17.994818 140.009430,17.582279 140.017822,17.376076 
	C156.857666,29.618237 165.872894,46.961075 170.951233,66.729637 
	C171.508881,68.900421 171.529053,71.209267 171.288559,73.363983 
	C161.557693,65.126183 152.336807,56.978485 143.131836,48.596626 
	C143.147781,48.362473 143.193893,47.895348 143.442627,47.619431 
	C142.459320,37.560619 141.227280,27.777718 139.995239,17.994818 
z"
                  />
                  <path
                     fill="#41B096"
                     opacity="1.000000"
                     stroke="none"
                     d="
M171.817657,137.825806 
	C170.229218,144.239624 169.049332,150.789276 166.970810,157.040146 
	C162.008530,171.963501 153.074982,184.219803 140.385590,193.991959 
	C140.017548,193.985184 139.944839,193.892334 139.965622,193.479095 
	C140.960587,186.884583 142.105133,180.723511 142.842010,174.514053 
	C143.252426,171.055496 142.984192,167.516373 143.090302,163.748444 
	C143.454666,163.024567 143.750549,162.565811 144.346161,161.950806 
	C153.703156,153.804977 162.760406,145.815399 171.817657,137.825806 
z"
                  />
                  <path
                     fill="#6254FF"
                     opacity="1.000000"
                     stroke="none"
                     d="
M22.087568,108.989365 
	C22.039246,107.279358 21.990921,105.569351 22.352211,103.391464 
	C30.179081,92.946167 37.596336,82.968735 45.216568,72.991867 
	C45.419552,72.992424 45.825520,72.992615 45.825520,72.992615 
	C42.057697,88.183113 42.905754,103.669502 43.096680,119.082581 
	C43.162827,124.422745 44.341858,129.749130 45.013512,135.534760 
	C45.014446,135.987701 44.954247,136.042023 44.620129,135.978836 
	C38.310749,128.158432 32.381489,120.364952 26.319298,112.676277 
	C25.181023,111.232605 23.511787,110.207581 22.087568,108.989365 
z"
                  />
                  <path
                     fill="#523DC0"
                     opacity="1.000000"
                     stroke="none"
                     d="
M144.046432,162.107040 
	C143.750549,162.565811 143.454666,163.024567 142.830627,163.953430 
	C138.941467,168.308746 135.591492,172.416412 131.776825,176.034119 
	C123.072533,184.288986 112.315857,188.729538 100.494217,191.887131 
	C96.717392,192.235046 93.374306,192.545898 90.068130,192.524506 
	C95.680695,186.366302 101.302231,180.583115 106.797844,174.682617 
	C108.079056,173.307007 108.932358,171.532837 109.982544,169.942047 
	C109.982544,169.942047 110.001198,169.997314 110.300507,169.998840 
	C111.072510,169.608017 111.545212,169.215652 112.017914,168.823288 
	C113.122520,167.940765 114.227127,167.058243 116.052246,166.075165 
	C125.515678,164.637619 134.258591,163.300629 143.263550,161.993469 
	C143.699219,162.051208 143.872833,162.079132 144.046432,162.107040 
z"
                  />
                  <path
                     fill="#523DC0"
                     opacity="1.000000"
                     stroke="none"
                     d="
M35.160221,163.921188 
	C35.097214,163.518036 35.034203,163.114899 35.356499,162.531967 
	C44.541920,163.563263 53.342041,164.774338 62.142159,165.985413 
	C62.887527,166.623444 63.632896,167.261475 64.788574,168.237885 
	C65.435303,168.828476 65.725967,168.966248 66.070854,168.989532 
	C66.070854,168.989532 66.002357,168.996094 66.027939,169.313736 
	C72.043159,175.423996 78.074814,181.174149 83.997101,187.034836 
	C85.796623,188.815613 87.294250,190.901474 88.971703,192.925934 
	C89.013252,193.004242 89.060867,193.175018 88.625320,193.111359 
	C86.143997,193.014175 84.098213,192.980637 81.804703,192.652786 
	C75.338058,190.366547 68.939545,188.803482 62.938850,186.290466 
	C51.599655,181.541672 42.995129,173.151886 35.160221,163.921188 
z"
                  />
                  <path
                     fill="#523DBF"
                     opacity="1.000000"
                     stroke="none"
                     d="
M143.193893,47.895348 
	C143.193893,47.895348 143.147781,48.362473 143.104431,48.686855 
	C143.061066,49.011238 143.018524,49.194977 142.583282,49.130810 
	C133.395035,48.046200 124.642052,47.025753 115.889061,46.005310 
	C115.127106,45.368080 114.365143,44.730846 113.196556,43.758728 
	C112.559746,43.169327 112.273415,43.031540 111.930931,43.010487 
	C111.930931,43.010487 111.997879,43.002556 111.906052,42.783604 
	C111.519646,42.378468 111.225060,42.192284 110.930473,42.006096 
	C110.930473,42.006100 110.996941,42.004013 110.975433,41.685825 
	C108.436966,38.563072 105.934891,35.744961 103.399574,32.957085 
	C99.534767,28.707294 95.646942,24.478428 91.844818,20.160267 
	C91.920746,20.079861 92.071472,19.917980 92.071472,19.917980 
	C94.742081,19.937439 97.412697,19.956898 100.768997,20.320362 
	C104.650345,21.440840 107.949219,21.931770 111.023804,23.043177 
	C124.382408,27.872068 134.733322,36.680847 143.193893,47.895348 
z"
                  />
                  <path
                     fill="#523DBF"
                     opacity="1.000000"
                     stroke="none"
                     d="
M81.130470,19.059389 
	C83.470047,19.023079 85.809616,18.986767 88.584808,18.875977 
	C89.907150,18.986858 90.793877,19.172220 91.876038,19.637779 
	C92.071472,19.917980 91.920746,20.079861 91.491547,20.093653 
	C89.499397,20.796509 87.644691,21.155100 86.424454,22.232367 
	C81.382500,26.683538 76.448997,31.267317 71.655525,35.985138 
	C69.857613,37.754677 68.549370,40.021740 67.017883,42.061974 
	C67.017883,42.061974 66.999901,42.003799 66.709152,42.008934 
	C65.948784,42.391956 65.479164,42.769844 65.009537,43.147728 
	C64.555824,43.702877 64.102112,44.258026 63.155651,44.976997 
	C62.352642,45.285915 62.116272,45.509224 61.953793,45.810738 
	C61.953793,45.810738 61.539074,45.943874 60.872307,45.965611 
	C51.835243,46.987923 43.464947,47.988495 35.047134,48.747070 
	C34.999619,48.505074 35.010273,48.011951 35.291306,47.833267 
	C40.099644,43.055542 44.352509,38.139973 49.213299,33.925575 
	C58.380974,25.977028 69.412239,21.702700 81.130470,19.059389 
z"
                  />
                  <path
                     fill="#41D69C"
                     opacity="1.000000"
                     stroke="none"
                     d="
M90.031219,192.856766 
	C93.374306,192.545898 96.717392,192.235046 100.775414,192.213531 
	C114.308510,192.966019 127.126678,193.429184 139.944839,193.892334 
	C139.944839,193.892334 140.017548,193.985184 140.039276,194.039978 
	C130.414139,202.398392 119.039986,206.958817 106.641304,208.906235 
	C101.157188,209.767609 95.517677,209.639709 89.481934,209.438461 
	C89.030396,203.669022 89.045631,198.422012 89.060867,193.175018 
	C89.060867,193.175018 89.013252,193.004242 89.246803,192.971039 
	C89.663971,192.910797 89.847595,192.883789 90.031219,192.856766 
z"
                  />
                  <path
                     fill="#41E2B8"
                     opacity="1.000000"
                     stroke="none"
                     d="
M88.625320,193.111359 
	C89.045631,198.422012 89.030396,203.669022 89.021332,209.371155 
	C70.392349,211.277222 53.829651,205.294495 38.385536,195.076172 
	C53.011524,193.965179 67.531975,193.456146 82.052429,192.947113 
	C84.098213,192.980637 86.143997,193.014175 88.625320,193.111359 
z"
                  />
                  <path
                     fill="#6255FE"
                     opacity="1.000000"
                     stroke="none"
                     d="
M144.346161,161.950806 
	C143.872833,162.079132 143.699219,162.051208 143.225250,161.636887 
	C140.258804,155.776810 137.682053,150.256760 134.875992,144.855820 
	C133.951248,143.075912 132.433838,141.603943 131.187424,139.991165 
	C130.513077,137.414062 131.804626,136.942780 134.075043,136.966385 
	C146.497406,137.095703 158.920898,137.115555 171.580841,137.499420 
	C162.760406,145.815399 153.703156,153.804977 144.346161,161.950806 
z"
                  />
                  <path
                     fill="#68D2BD"
                     opacity="1.000000"
                     stroke="none"
                     d="
M81.804703,192.652802 
	C67.531975,193.456146 53.011524,193.965179 38.196808,194.784790 
	C37.577209,195.026428 37.318241,194.856415 37.038826,194.365540 
	C36.160259,184.226685 35.368511,174.307617 34.868492,164.154877 
	C42.995129,173.151886 51.599655,181.541672 62.938850,186.290466 
	C68.939545,188.803482 75.338058,190.366547 81.804703,192.652802 
z"
                  />
                  <path
                     fill="#6255FE"
                     opacity="1.000000"
                     stroke="none"
                     d="
M143.088486,48.921013 
	C152.336807,56.978485 161.557693,65.126183 170.958755,73.554977 
	C158.578964,73.888977 146.018967,73.962234 133.459106,73.945923 
	C132.677490,73.944908 131.896774,73.240906 131.481812,72.369804 
	C135.571487,64.315414 139.294998,56.755196 143.018524,49.194977 
	C143.018524,49.194977 143.061066,49.011238 143.088486,48.921013 
z"
                  />
                  <path
                     fill="#CFFFF8"
                     opacity="1.000000"
                     stroke="none"
                     d="
M245.942947,68.395653 
	C241.324829,78.671356 229.916824,80.643806 223.244232,72.717682 
	C220.088455,68.969055 220.114365,64.601425 221.900146,60.553776 
	C223.625717,56.642544 226.812576,54.346363 231.571960,53.893288 
	C241.642426,52.934624 247.451355,59.526157 245.942947,68.395653 
z"
                  />
                  <path
                     fill="#6135FD"
                     opacity="1.000000"
                     stroke="none"
                     d="
M67.391891,42.027122 
	C68.549370,40.021740 69.857613,37.754677 71.655525,35.985138 
	C76.448997,31.267317 81.382500,26.683538 86.424454,22.232367 
	C87.644691,21.155100 89.499397,20.796509 91.415619,20.174061 
	C95.646942,24.478428 99.534767,28.707294 103.399574,32.957085 
	C105.934891,35.744961 108.436966,38.563072 110.967567,41.718132 
	C104.103241,40.378994 97.303436,38.144073 90.326630,37.143974 
	C82.408264,36.008911 74.822701,38.200783 67.391891,42.027122 
z"
                  />
                  <path
                     fill="#6235FE"
                     opacity="1.000000"
                     stroke="none"
                     d="
M90.068130,192.524506 
	C89.847595,192.883789 89.663971,192.910797 89.205254,192.892715 
	C87.294250,190.901474 85.796623,188.815613 83.997101,187.034836 
	C78.074814,181.174149 72.043159,175.423996 66.036057,169.280304 
	C72.738556,170.934494 79.439667,174.459473 86.183456,174.543121 
	C93.843178,174.638077 101.541077,171.655121 109.602463,169.976105 
	C108.932358,171.532837 108.079056,173.307007 106.797844,174.682617 
	C101.302231,180.583115 95.680695,186.366302 90.068130,192.524506 
z"
                  />
                  <path
                     fill="#6D5FFF"
                     opacity="1.000000"
                     stroke="none"
                     d="
M142.583282,49.130810 
	C139.294998,56.755196 135.571487,64.315414 131.516785,71.943405 
	C128.233047,62.344788 124.289452,53.264370 116.037704,46.324326 
	C124.642052,47.025753 133.395035,48.046200 142.583282,49.130810 
z"
                  />
                  <path
                     fill="#6235FE"
                     opacity="1.000000"
                     stroke="none"
                     d="
M61.996841,165.676056 
	C53.342041,164.774338 44.541920,163.563263 35.362793,162.225769 
	C34.983784,162.099365 34.935352,162.093399 35.083755,161.750031 
	C38.497532,153.615784 41.762897,145.824936 45.224598,138.028824 
	C45.420929,138.023575 45.813728,138.024460 45.813728,138.024460 
	C48.845627,148.495850 53.277130,158.146301 61.996841,165.676056 
z"
                  />
                  <path
                     fill="#6D5FFF"
                     opacity="1.000000"
                     stroke="none"
                     d="
M131.009201,140.324799 
	C132.433838,141.603943 133.951248,143.075912 134.875992,144.855820 
	C137.682053,150.256760 140.258804,155.776810 142.963196,161.607056 
	C134.258591,163.300629 125.515678,164.637619 116.340179,165.945404 
	C123.443756,159.010513 127.692276,150.162323 131.009201,140.324799 
z"
                  />
                  <path
                     fill="#624AEC"
                     opacity="1.000000"
                     stroke="none"
                     d="
M35.094654,48.989071 
	C43.464947,47.988495 51.835243,46.987923 60.657562,46.001877 
	C53.941196,53.540413 49.090118,62.379856 46.001858,72.656342 
	C45.825520,72.992615 45.419552,72.992424 45.174248,72.629684 
	C41.582355,64.786781 38.235771,57.306606 34.914101,49.610603 
	C34.939014,49.394772 35.094654,48.989071 35.094654,48.989071 
z"
                  />
                  <path
                     fill="#6235FE"
                     opacity="1.000000"
                     stroke="none"
                     d="
M111.703125,168.901855 
	C111.545212,169.215652 111.072510,169.608017 110.272446,169.990921 
	C110.426163,169.647797 110.907257,169.314117 111.703125,168.901855 
z"
                  />
                  <path
                     fill="#6135FD"
                     opacity="1.000000"
                     stroke="none"
                     d="
M65.322968,43.081604 
	C65.479164,42.769844 65.948784,42.391956 66.738609,42.016647 
	C66.584671,42.351315 66.110527,42.683399 65.322968,43.081604 
z"
                  />
                  <path
                     fill="#6254FF"
                     opacity="1.000000"
                     stroke="none"
                     d="
M45.885338,137.715027 
	C45.813728,138.024460 45.420929,138.023575 45.211880,137.696381 
	C44.986637,136.926788 44.970444,136.484406 44.954247,136.042023 
	C44.954247,136.042023 45.014446,135.987701 45.045151,135.960754 
	C45.369553,136.424408 45.663250,136.914993 45.885338,137.715027 
z"
                  />
                  <path
                     fill="#624AEC"
                     opacity="1.000000"
                     stroke="none"
                     d="
M62.226501,45.844341 
	C62.116272,45.509224 62.352642,45.285915 62.903389,45.081413 
	C62.928993,45.307316 62.714104,45.592632 62.226501,45.844341 
z"
                  />
                  <path
                     fill="#6135FD"
                     opacity="1.000000"
                     stroke="none"
                     d="
M112.013184,43.273205 
	C112.273415,43.031540 112.559746,43.169327 112.926529,43.626137 
	C112.740578,43.730930 112.418007,43.633427 112.013184,43.273205 
z"
                  />
                  <path
                     fill="#6235FE"
                     opacity="1.000000"
                     stroke="none"
                     d="
M65.985374,168.724258 
	C65.725967,168.966248 65.435303,168.828476 65.056114,168.374588 
	C65.242203,168.268280 65.571045,168.363632 65.985374,168.724258 
z"
                  />
                  <path
                     fill="#6135FD"
                     opacity="1.000000"
                     stroke="none"
                     d="
M111.007370,42.268036 
	C111.225060,42.192284 111.519646,42.378468 111.904297,42.817268 
	C111.691002,42.889915 111.387634,42.709946 111.007370,42.268036 
z"
                  />
                  <path
                     fill="transparent"
                     opacity="1.000000"
                     stroke="none"
                     d="
M879.377197,114.780357 
	C880.706055,119.895287 882.108521,124.637268 882.914978,129.478531 
	C883.521240,133.117859 881.527527,135.025772 877.699829,135.015579 
	C861.876892,134.973389 846.053467,135.054932 830.230896,134.965103 
	C825.157959,134.936325 823.753967,132.665131 824.615906,127.580345 
	C826.105164,118.794662 829.219849,110.929283 836.480164,105.300720 
	C850.138489,94.712166 871.344116,98.994102 879.377197,114.780357 
z"
                  />
                  <path
                     fill="#68E2CE"
                     opacity="1.000000"
                     stroke="none"
                     d="
M35.047134,48.747070 
	C35.094654,48.989071 34.939014,49.394772 34.699631,49.742477 
	C34.091499,50.420971 33.722752,50.751759 32.984161,51.078789 
	C31.645332,51.649143 30.598539,52.123943 29.719446,52.812767 
	C21.181160,59.503025 12.670966,66.229141 4.152763,72.945030 
	C5.017654,62.973087 8.948154,54.015598 13.275545,45.174828 
	C18.737514,34.016136 26.760468,24.999414 36.684631,17.665512 
	C36.742702,21.303440 36.433567,24.551649 36.224350,27.806282 
	C35.791500,34.539692 35.411819,41.276527 35.010273,48.011951 
	C35.010273,48.011951 34.999619,48.505074 35.047134,48.747070 
z"
                  />
                  <path
                     fill="#67D2BD"
                     opacity="1.000000"
                     stroke="none"
                     d="
M35.291306,47.833267 
	C35.411819,41.276527 35.791500,34.539692 36.224350,27.806282 
	C36.433567,24.551649 36.742702,21.303440 37.011223,17.607666 
	C37.015854,17.163012 37.456070,17.035381 37.683247,17.005640 
	C50.254887,17.324543 62.600460,17.640505 74.942581,18.058262 
	C76.724533,18.118576 78.489937,18.668049 80.696732,19.025272 
	C69.412239,21.702700 58.380974,25.977028 49.213299,33.925575 
	C44.352509,38.139973 40.099644,43.055542 35.291306,47.833267 
z"
                  />
                  <path
                     fill="#74EBE8"
                     opacity="1.000000"
                     stroke="none"
                     d="
M4.089673,73.183472 
	C12.670966,66.229141 21.181160,59.503025 29.719446,52.812767 
	C30.598539,52.123943 31.645332,51.649143 32.854713,51.422726 
	C23.936905,66.916916 21.044722,83.602547 21.005508,100.988960 
	C20.117224,100.558372 18.812355,100.368088 18.404217,99.660530 
	C13.603043,91.337227 8.936259,82.936417 4.090865,74.232445 
	C3.947666,73.908867 4.026585,73.421921 4.089673,73.183472 
z"
                  />
                  <path
                     fill="#6D60FF"
                     opacity="1.000000"
                     stroke="none"
                     d="
M44.620132,135.978836 
	C44.970444,136.484406 44.986637,136.926788 45.015549,137.701630 
	C41.762897,145.824936 38.497532,153.615784 35.065182,161.734253 
	C34.898201,162.061859 34.502533,162.011490 34.270439,161.686066 
	C33.692081,160.884613 33.345814,160.408569 32.999546,159.932541 
	C32.977291,159.636887 32.869408,159.376740 32.376030,158.688385 
	C23.510983,143.270447 21.117996,126.900581 21.016678,110.005104 
	C21.284561,109.809578 21.552446,109.614052 21.953949,109.203949 
	C23.511787,110.207581 25.181023,111.232605 26.319298,112.676277 
	C32.381489,120.364952 38.310749,128.158432 44.620132,135.978836 
z"
                  />
                  <path
                     fill="#6D5FFF"
                     opacity="1.000000"
                     stroke="none"
                     d="
M21.256374,101.153000 
	C21.044722,83.602547 23.936905,66.916916 33.224560,51.426479 
	C33.722752,50.751759 34.091499,50.420971 34.674713,49.958309 
	C38.235771,57.306606 41.582355,64.786781 44.971264,72.629128 
	C37.596336,82.968735 30.179081,92.946167 22.420376,102.967514 
	C21.888365,102.446640 21.697803,101.881844 21.256374,101.153000 
z"
                  />
                  <path
                     fill="#74EBE8"
                     opacity="1.000000"
                     stroke="none"
                     d="
M20.669479,110.053116 
	C21.117996,126.900581 23.510983,143.270447 32.197525,158.570175 
	C29.938566,157.640930 27.309013,156.681534 25.223787,155.033417 
	C18.471214,149.696350 11.918442,144.106506 5.140663,138.312531 
	C10.102507,128.707733 15.212392,119.404434 20.669479,110.053116 
z"
                  />
                  <path
                     fill="#41C396"
                     opacity="1.000000"
                     stroke="none"
                     d="
M143.442627,47.619431 
	C134.733322,36.680847 124.382408,27.872068 111.023804,23.043177 
	C107.949219,21.931770 104.650345,21.440840 101.213379,20.360516 
	C103.433418,19.372557 105.882942,18.152510 108.358154,18.097954 
	C118.587532,17.872484 128.824692,17.999985 139.527115,17.996309 
	C141.227280,27.777718 142.459320,37.560619 143.442627,47.619431 
z"
                  />
                  <path
                     fill="transparent"
                     opacity="1.000000"
                     stroke="none"
                     d="
M286.616547,118.739479 
	C290.375153,107.887314 301.956818,99.308029 312.849335,99.066788 
	C324.701813,98.804283 336.722565,107.413559 340.928162,119.176872 
	C345.762146,132.697861 344.194183,135.000000 330.151123,135.000000 
	C317.668732,135.000000 305.186371,135.004547 292.703979,134.998444 
	C284.042572,134.994202 282.794495,133.379623 284.882660,124.843117 
	C285.354279,122.915108 285.929443,121.012428 286.616547,118.739479 
z"
                  />
                  <path
                     fill="#74EBE8"
                     opacity="1.000000"
                     stroke="none"
                     d="
M33.016975,160.246872 
	C33.345814,160.408569 33.692081,160.884613 34.072311,161.663330 
	C33.748985,161.497742 33.391697,161.029480 33.016975,160.246872 
z"
                  />
                  <path
                     fill="#41C396"
                     opacity="1.000000"
                     stroke="none"
                     d="
M139.965622,193.479095 
	C127.126678,193.429184 114.308510,192.966019 101.209152,192.176483 
	C112.315857,188.729538 123.072533,184.288986 131.776825,176.034119 
	C135.591492,172.416412 138.941467,168.308746 142.762131,164.218567 
	C142.984192,167.516373 143.252426,171.055496 142.842010,174.514053 
	C142.105133,180.723511 140.960587,186.884583 139.965622,193.479095 
z"
                  />
               </svg>